<svg width="20" height="20" viewBox="0 0 20 20" fill="none" xmlns="http://www.w3.org/2000/svg">
<g id="Search">
<path id="Vector" d="M14.5441 14.5442L18.25 18.25M9.32217 2.50003C7.97288 2.50003 6.65388 2.90013 5.53198 3.64975C4.41008 4.39936 3.53566 5.46481 3.01931 6.71137C2.50296 7.95793 2.36785 9.32961 2.63109 10.6529C2.89432 11.9763 3.54407 13.1919 4.49817 14.1459C5.45227 15.1 6.66786 15.7497 7.99123 16.013C9.31461 16.2762 10.6863 16.1411 11.9329 15.6248C13.1795 15.1084 14.245 14.234 14.9946 13.1121C15.7442 11.9903 16.1443 10.6713 16.1443 9.32204C16.1442 7.51277 15.4254 5.77763 14.146 4.49828C12.8667 3.21893 11.1315 2.50015 9.32217 2.50003Z" stroke="#1E1E1E" stroke-width="1.5" stroke-miterlimit="10" stroke-linecap="round"/>
</g>
</svg>
