<svg width="64" height="64" viewBox="0 0 64 64" fill="none" xmlns="http://www.w3.org/2000/svg">
<path opacity="0.5" d="M58.6666 28.0007V32.0007C58.6666 44.5713 58.6666 50.8569 54.7613 54.762C50.8562 58.6673 44.5706 58.6673 31.9999 58.6673C19.4291 58.6673 13.1437 58.6673 9.23851 54.762C5.33325 50.8569 5.33325 44.5713 5.33325 32.0007C5.33325 19.4299 5.33325 13.1445 9.23851 9.23924C13.1437 5.33398 19.4291 5.33398 31.9999 5.33398H35.9999" stroke="#C3C3EA" stroke-width="4" stroke-linecap="round"/>
<path d="M50.6665 21.334C55.0848 21.334 58.6665 17.7523 58.6665 13.334C58.6665 8.91571 55.0848 5.33398 50.6665 5.33398C46.2482 5.33398 42.6665 8.91571 42.6665 13.334C42.6665 17.7523 46.2482 21.334 50.6665 21.334Z" stroke="#C3C3EA" stroke-width="4"/>
</svg>
