<svg width="64" height="64" viewBox="0 0 64 64" fill="none" xmlns="http://www.w3.org/2000/svg">
<g clip-path="url(#clip0_2171_7946)">
<path d="M18.6679 26.6699H10.6684C9.19576 26.6699 8.00195 27.8637 8.00195 29.3364C8.00195 30.8091 9.19576 32.0029 10.6684 32.0029H18.6679C20.1406 32.0029 21.3344 30.8091 21.3344 29.3364C21.3344 27.8637 20.1405 26.6699 18.6679 26.6699Z" fill="#C3C3EA"/>
<path d="M18.6679 37.3359H10.6684C9.19576 37.3359 8.00195 38.5297 8.00195 40.0024C8.00195 41.4751 9.19576 42.6689 10.6684 42.6689H18.6679C20.1406 42.6689 21.3344 41.4751 21.3344 40.0024C21.3344 38.5297 20.1405 37.3359 18.6679 37.3359Z" fill="#C3C3EA"/>
<path d="M18.6679 48.002H10.6684C9.19576 48.002 8.00195 49.1958 8.00195 50.6684C8.00195 52.1411 9.19576 53.3349 10.6684 53.3349H18.6679C20.1406 53.3349 21.3344 52.1411 21.3344 50.6684C21.3344 49.1959 20.1405 48.002 18.6679 48.002Z" fill="#C3C3EA"/>
<path d="M61.6552 18.3468C58.5313 15.223 53.4672 15.223 50.3435 18.3468L45.3322 23.3575V16.1476C45.3648 15.6009 45.2282 15.0346 44.8852 14.5255C44.8835 14.523 44.8821 14.5205 44.8805 14.5181C44.8451 14.4658 44.8072 14.4146 44.7674 14.3636C44.7606 14.3549 44.7548 14.3457 44.7479 14.3371L34.0819 1.00462C34.0411 0.953709 33.9982 0.905145 33.9542 0.857752C33.935 0.83692 33.9156 0.816609 33.8961 0.796558C33.8822 0.782497 33.8678 0.768695 33.8537 0.754894C33.2886 0.197899 32.5742 -0.0335961 31.8802 0.00390144H2.66845C1.19576 0.00390144 0.00195312 1.1977 0.00195312 2.67039V61.3332C0.00195312 62.8059 1.19576 63.9997 2.66845 63.9997H42.6658C44.1385 63.9997 45.3323 62.8059 45.3323 61.3332V45.9835L61.6554 29.6586C64.7791 26.5349 64.7791 21.4707 61.6552 18.3468ZM37.1183 13.3373H34.6667V10.2729L37.1183 13.3373ZM39.9993 58.6666H5.33494V5.33676H29.3339V16.0038C29.3339 17.4765 30.5277 18.6703 32.0004 18.6703H39.9993V28.6894L38.8317 29.8573L25.8305 42.8571C25.4092 43.2783 25.1411 43.8285 25.0689 44.4199L24.4189 49.7491L24.02 53.0098C23.8754 54.1924 24.5205 55.2525 25.497 55.7311C25.9409 55.949 26.4531 56.0466 26.9907 55.981L35.5822 54.933C36.1736 54.8609 36.7236 54.5928 37.145 54.1715L39.9993 51.3168V58.6666ZM57.8842 25.8878L40.7911 42.9826C40.7876 42.9861 40.7838 42.9891 40.7803 42.9926L34.0228 49.7501L29.7274 50.2741L30.2526 45.9805L42.6164 33.6145L54.1143 22.1178C55.1556 21.0765 56.843 21.0765 57.8842 22.1177C58.9255 23.1589 58.9255 24.8466 57.8842 25.8878Z" fill="#C3C3EA"/>
<path d="M27.4482 33.8877C28.6381 35.0776 30.619 34.8814 31.5524 33.4813L36.8854 25.4819C37.7022 24.2565 37.3711 22.6009 36.1458 21.7841C34.9205 20.9672 33.2649 21.2983 32.448 22.5236L28.9192 27.8167L28.5527 27.4502C27.5114 26.4089 25.8231 26.4089 24.7817 27.4502C23.7404 28.4916 23.7404 30.1799 24.7817 31.2212L27.4482 33.8877Z" fill="#C3C3EA"/>
</g>
<defs>
<clipPath id="clip0_2171_7946">
<rect width="64" height="64" fill="white"/>
</clipPath>
</defs>
</svg>
