<svg width="64" height="64" viewBox="0 0 64 64" fill="none" xmlns="http://www.w3.org/2000/svg">
<path fill-rule="evenodd" clip-rule="evenodd" d="M48 16V48H16V16H48ZM29.4687 24H26.3522L20.4355 40H23.2471L24.3641 36.8721H31.4469L32.54 40H35.5209L29.4687 24ZM40.5117 24H37.7114V40H40.5117V24ZM27.8868 26.6844L30.6761 34.6666H25.1419L27.8868 26.6844ZM50.6667 40H56V45.3333H50.6667V40ZM18.6667 50.6667H24V56H18.6667V50.6667ZM29.3333 50.6667H34.6667V56H29.3333V50.6667ZM18.6667 8H24V13.3333H18.6667V8ZM40 50.6667H45.3333V56H40V50.6667ZM29.3333 8H34.6667V13.3333H29.3333V8ZM40 8H45.3333V13.3333H40V8ZM50.6667 29.3333H56V34.6667H50.6667V29.3333ZM8 40H13.3333V45.3333H8V40ZM50.6667 18.6667H56V24H50.6667V18.6667ZM8 29.3333H13.3333V34.6667H8V29.3333ZM8 18.6667H13.3333V24H8V18.6667Z" fill="#46AEF5"/>
</svg>
