<svg width="64" height="64" viewBox="0 0 64 64" fill="none" xmlns="http://www.w3.org/2000/svg">
<path fill-rule="evenodd" clip-rule="evenodd" d="M16 2.66699C11.5817 2.66699 8 6.24873 8 10.667V53.3337C8 57.7521 11.5817 61.3337 16 61.3337H48C52.4184 61.3337 56 57.7521 56 53.3337V23.5428C56 21.4211 55.1571 19.3862 53.6568 17.886L40.7811 5.01014C39.2808 3.50985 37.2459 2.66699 35.1243 2.66699H16ZM13.3333 10.667C13.3333 9.19425 14.5273 8.00033 16 8.00033H32V21.3337C32 24.2792 34.3877 26.667 37.3333 26.667H50.6667V53.3337C50.6667 54.8065 49.4728 56.0003 48 56.0003H16C14.5273 56.0003 13.3333 54.8065 13.3333 53.3337V10.667ZM49.5621 21.3337L37.3333 9.10489V21.3337H49.5621Z" fill="#46AEF5"/>
</svg>
