<svg width="64" height="64" viewBox="0 0 64 64" fill="none" xmlns="http://www.w3.org/2000/svg">
<path d="M8 26.6663C8 16.6097 8 11.5814 11.1242 8.45719C14.2484 5.33301 19.2767 5.33301 29.3333 5.33301H34.6667C44.7232 5.33301 49.7517 5.33301 52.8757 8.45719C56 11.5814 56 16.6097 56 26.6663V37.333C56 47.3895 56 52.4181 52.8757 55.5421C49.7517 58.6663 44.7232 58.6663 34.6667 58.6663H29.3333C19.2767 58.6663 14.2484 58.6663 11.1242 55.5421C8 52.4181 8 47.3895 8 37.333V26.6663Z" stroke="#46AEF5" stroke-width="4"/>
<path d="M21.3335 32H42.6668" stroke="#46AEF5" stroke-width="4" stroke-linecap="round"/>
<path d="M21.3335 21.333H42.6668" stroke="#46AEF5" stroke-width="4" stroke-linecap="round"/>
<path d="M21.3335 42.666H34.6668" stroke="#46AEF5" stroke-width="4" stroke-linecap="round"/>
</svg>
