<svg width="64" height="64" viewBox="0 0 64 64" fill="none" xmlns="http://www.w3.org/2000/svg">
<path d="M42.1868 32V49.8133" stroke="#C3C3EA" stroke-width="5.09333" stroke-miterlimit="10"/>
<path d="M32 37.0938V49.8138" stroke="#C3C3EA" stroke-width="5.09333" stroke-miterlimit="10"/>
<path d="M21.8135 42.1875V49.8142" stroke="#C3C3EA" stroke-width="5.09333" stroke-miterlimit="10"/>
<path d="M32.0001 9.09333L26.9067 4H4.00007V54.9067C3.99654 55.5765 4.12587 56.2404 4.38058 56.86C4.63529 57.4795 5.01033 58.0424 5.48399 58.5161C5.95766 58.9897 6.52055 59.3648 7.1401 59.6195C7.75964 59.8742 8.42355 60.0035 9.0934 60H54.9067C55.5766 60.0035 56.2405 59.8742 56.86 59.6195C57.4796 59.3648 58.0425 58.9897 58.5162 58.5161C58.9898 58.0424 59.3649 57.4795 59.6196 56.86C59.8743 56.2404 60.0036 55.5765 60.0001 54.9067V9.09333H32.0001Z" stroke="#C3C3EA" stroke-width="5.09333" stroke-miterlimit="10"/>
<path d="M4 19.2793H60" stroke="#C3C3EA" stroke-width="5.09333" stroke-miterlimit="10"/>
</svg>
