<svg width="64" height="64" viewBox="0 0 64 64" fill="none" xmlns="http://www.w3.org/2000/svg">
<path d="M50.6666 10.6673H45.3333V8.00065C45.3333 7.29341 45.0523 6.61513 44.5522 6.11503C44.0521 5.61494 43.3738 5.33398 42.6666 5.33398C41.9593 5.33398 41.2811 5.61494 40.781 6.11503C40.2809 6.61513 39.9999 7.29341 39.9999 8.00065V10.6673H23.9999V8.00065C23.9999 7.29341 23.719 6.61513 23.2189 6.11503C22.7188 5.61494 22.0405 5.33398 21.3333 5.33398C20.626 5.33398 19.9477 5.61494 19.4476 6.11503C18.9475 6.61513 18.6666 7.29341 18.6666 8.00065V10.6673H13.3333C11.2115 10.6673 9.17669 11.5102 7.6764 13.0105C6.17611 14.5108 5.33325 16.5456 5.33325 18.6673V50.6673C5.33325 52.7891 6.17611 54.8239 7.6764 56.3242C9.17669 57.8245 11.2115 58.6673 13.3333 58.6673H50.6666C52.7883 58.6673 54.8232 57.8245 56.3234 56.3242C57.8237 54.8239 58.6666 52.7891 58.6666 50.6673V18.6673C58.6666 16.5456 57.8237 14.5108 56.3234 13.0105C54.8232 11.5102 52.7883 10.6673 50.6666 10.6673ZM53.3333 50.6673C53.3333 51.3746 53.0523 52.0528 52.5522 52.5529C52.0521 53.053 51.3738 53.334 50.6666 53.334H13.3333C12.626 53.334 11.9477 53.053 11.4476 52.5529C10.9475 52.0528 10.6666 51.3746 10.6666 50.6673V32.0007H53.3333V50.6673ZM53.3333 26.6673H10.6666V18.6673C10.6666 17.9601 10.9475 17.2818 11.4476 16.7817C11.9477 16.2816 12.626 16.0007 13.3333 16.0007H18.6666V18.6673C18.6666 19.3746 18.9475 20.0528 19.4476 20.5529C19.9477 21.053 20.626 21.334 21.3333 21.334C22.0405 21.334 22.7188 21.053 23.2189 20.5529C23.719 20.0528 23.9999 19.3746 23.9999 18.6673V16.0007H39.9999V18.6673C39.9999 19.3746 40.2809 20.0528 40.781 20.5529C41.2811 21.053 41.9593 21.334 42.6666 21.334C43.3738 21.334 44.0521 21.053 44.5522 20.5529C45.0523 20.0528 45.3333 19.3746 45.3333 18.6673V16.0007H50.6666C51.3738 16.0007 52.0521 16.2816 52.5522 16.7817C53.0523 17.2818 53.3333 17.9601 53.3333 18.6673V26.6673Z" fill="#C3C3EA"/>
</svg>
