<svg width="64" height="64" viewBox="0 0 64 64" fill="none" xmlns="http://www.w3.org/2000/svg">
<path d="M32 37.3333V45.3333M32 37.3333C25.5494 37.3333 20.1688 32.7525 18.9334 26.6667M32 37.3333C38.4507 37.3333 43.8312 32.7525 45.0667 26.6667M32 45.3333C34.48 45.3333 35.72 45.3333 36.7373 45.6059C39.4979 46.3456 41.6544 48.5021 42.3941 51.2627C42.6667 52.28 42.6667 53.52 42.6667 56H21.3333C21.3333 53.52 21.3333 52.28 21.6059 51.2627C22.3457 48.5021 24.5021 46.3456 27.2627 45.6059C28.28 45.3333 29.52 45.3333 32 45.3333ZM18.9334 26.6667H18.6667H18C16.1414 26.6667 15.2121 26.6667 14.4393 26.513C11.2658 25.8817 8.78496 23.4009 8.15371 20.2274C8 19.4546 8 18.5253 8 16.6667C8 16.0471 8 15.7374 8.05123 15.4798C8.26165 14.4219 9.08859 13.595 10.1464 13.3846C10.404 13.3333 10.7138 13.3333 11.3333 13.3333H18.6667M18.9334 26.6667C18.7585 25.805 18.6667 24.9133 18.6667 24V12.1905C18.6667 10.7688 18.6667 10.058 18.9307 9.50965C19.1929 8.96536 19.632 8.52619 20.1763 8.26408C20.7247 8 21.4355 8 22.8571 8H41.1429C42.5645 8 43.2752 8 43.8237 8.26408C44.368 8.52619 44.8072 8.96536 45.0693 9.50965C45.3333 10.058 45.3333 10.7688 45.3333 12.1905V24C45.3333 24.9133 45.2416 25.805 45.0667 26.6667M45.0667 26.6667H45.3333H46C47.8587 26.6667 48.788 26.6667 49.5608 26.513C52.7341 25.8817 55.2149 23.4009 55.8464 20.2274C56 19.4546 56 18.5253 56 16.6667C56 16.0471 56 15.7374 55.9488 15.4798C55.7384 14.4219 54.9115 13.595 53.8536 13.3846C53.596 13.3333 53.2861 13.3333 52.6667 13.3333H45.3333" stroke="#46AEF5" stroke-width="5.33333" stroke-linecap="round" stroke-linejoin="round"/>
</svg>
